<svg width="194" height="44" viewBox="0 0 194 44" fill="none" xmlns="http://www.w3.org/2000/svg">
<path d="M61.9253 13.8609H67.5693V4.99635H74.9876V13.8609H83.212V20.6301H74.9876V37.3921H83.212V43.5168H73.6974C70.311 43.5168 67.5693 40.9378 67.5693 37.5533V20.6301H61.9253V13.8609ZM112.078 24.6595C112.078 17.8902 106.756 13.5385 99.1772 13.5385C91.5976 13.5385 86.4371 18.0514 86.1146 24.0148H92.5653C92.7265 21.2748 94.984 18.8572 98.8547 18.8572C102.725 18.8572 104.821 20.9525 104.821 23.8536C104.821 24.9818 104.176 25.7876 102.725 25.7876H97.2419C90.4687 25.7876 86.1146 29.4946 86.1146 35.1357C86.1146 40.2931 90.1461 44 95.9517 44C100.145 44 103.693 42.0662 104.821 39.1652V43.5168H112.078V24.6595ZM98.2096 30.1393H104.821C104.821 35.1357 102.241 38.3591 97.7257 38.3591C94.8228 38.3591 93.2104 36.7474 93.2104 34.3298C93.2104 31.9122 95.1453 30.1393 98.2096 30.1393ZM116.916 1.28938V9.18685H124.657V1.28938H116.916ZM117.239 13.8609V43.5168H124.495V13.8609H117.239ZM129.978 1.28938V43.5168H137.235V1.28938H129.978ZM156.587 13.5385C147.556 13.5385 140.944 19.9854 140.944 28.8499C140.944 37.7144 147.556 44 156.587 44C165.618 44 172.068 37.5533 172.068 28.8499C172.068 20.1466 165.456 13.5385 156.587 13.5385ZM156.587 37.8756C151.588 37.8756 148.201 34.0075 148.201 28.8499C148.201 23.6924 151.588 19.8243 156.587 19.8243C161.586 19.8243 164.811 23.37 164.811 28.8499C164.811 34.3298 161.425 37.8756 156.587 37.8756ZM194 13.8609V19.9854H189.485C184.808 19.9854 183.034 24.0148 183.034 29.4946V43.5168H175.777V13.8609H183.034V19.1795C184.485 15.3114 186.905 13.8609 190.614 13.8609H194ZM47.7341 43.5168V36.2639H36.9293C35.8005 36.2639 34.5104 35.6192 33.5428 34.491L28.8661 29.0111H47.7341V21.7583H34.5104L43.8639 10.6374L38.2194 5.96339L27.4148 18.696V0H20.1579V18.696L9.51453 5.96339L3.87032 10.6374L13.2236 21.7583H0V29.0111H18.8678L14.1912 34.491C13.2236 35.6192 11.9335 36.2639 10.8047 36.2639H0V43.5168H11.2885C14.1912 43.5168 17.0939 42.3885 18.7065 40.4543L23.867 34.3298L29.0274 40.4543C30.6401 42.2273 33.5428 43.5168 36.4455 43.5168H47.7341Z" fill="white"/>
</svg>
