<svg width="44" height="40" viewBox="0 0 44 40" fill="none" xmlns="http://www.w3.org/2000/svg">
<path d="M43.9259 40V33.3332H33.9999C32.9628 33.3332 31.7777 32.7406 30.8888 31.7036L26.5925 26.6666H43.9259V19.9999H31.7777L40.3704 9.77774L35.1851 5.48146L25.2592 17.1851V0H18.5925V17.1851L8.81479 5.48146L3.62964 9.77774L12.2222 19.9999H0.0740967V26.6666H17.4074L13.1111 31.7036C12.2222 32.7406 11.037 33.3332 10 33.3332H0.0740967V40H10.4444C13.1111 40 15.7777 38.9629 17.2592 37.185L21.9999 31.5554L26.7407 37.185C28.2222 38.8147 30.8888 40 33.5555 40H43.9259Z" fill="#264BEB"/>
</svg>
